HIERARCHY
ROOT Hips
{
  OFFSET 0.000000 0.000000 0.000000
  CHANNELS 6 Xposition Yposition Zposition Xrotation Yrotation Zrotation
  JOINT Spine
  {
    OFFSET 1.471354 23.290033 -6.106481
    CHANNELS 3 Xrotation Yrotation Zrotation
    JOINT Chest
    {
      OFFSET 1.471354 23.290033 -6.106481
      CHANNELS 3 Xrotation Yrotation Zrotation
      JOINT Neck
      {
        OFFSET -2.554482 8.383535 -1.440578
        CHANNELS 3 Xrotation Yrotation Zrotation
        JOINT Head
        {
          OFFSET -6.488949 6.596687 -1.313551
          CHANNELS 3 Xrotation Yrotation Zrotation
          End Site
          {
            OFFSET -1.946685 1.979006 -0.394065
          }
        }
      }
      JOINT LeftShoulder
      {
        OFFSET 4.445460 -1.571870 -16.227993
        CHANNELS 3 Xrotation Yrotation Zrotation
        JOINT LeftArm
        {
          OFFSET -5.835221 -22.551993 -2.146173
          CHANNELS 3 Xrotation Yrotation Zrotation
          JOINT LeftForeArm
          {
            OFFSET -12.437178 -19.553858 5.324733
            CHANNELS 3 Xrotation Yrotation Zrotation
            JOINT LeftHand
            {
              OFFSET -3.243800 -4.801626 -2.197453
              CHANNELS 3 Xrotation Yrotation Zrotation
              End Site
              {
                OFFSET -0.973140 -1.440488 -0.659236
              }
            }
          }
        }
      }
      JOINT RightShoulder
      {
        OFFSET -4.445460 1.571870 16.227993
        CHANNELS 3 Xrotation Yrotation Zrotation
        JOINT RightArm
        {
          OFFSET 15.000000 -5.000000 0.000000
          CHANNELS 3 Xrotation Yrotation Zrotation
          JOINT RightForeArm
          {
            OFFSET 12.000000 -8.000000 0.000000
            CHANNELS 3 Xrotation Yrotation Zrotation
            JOINT RightHand
            {
              OFFSET 5.000000 -5.000000 0.000000
              CHANNELS 3 Xrotation Yrotation Zrotation
              End Site
              {
                OFFSET 1.500000 -1.500000 0.000000
              }
            }
          }
        }
      }
    }
  }
  JOINT LeftUpLeg
  {
    OFFSET 5.983835 -1.012600 -8.641845
    CHANNELS 3 Xrotation Yrotation Zrotation
    JOINT LeftLeg
    {
      OFFSET 2.259026 -41.160902 2.325652
      CHANNELS 3 Xrotation Yrotation Zrotation
      JOINT LeftFoot
      {
        OFFSET 27.481258 -16.640986 16.500056
        CHANNELS 3 Xrotation Yrotation Zrotation
        End Site
        {
          OFFSET 8.244378 -4.992296 4.950017
        }
      }
    }
  }
  JOINT RightUpLeg
  {
    OFFSET -5.983835 1.012600 8.641845
    CHANNELS 3 Xrotation Yrotation Zrotation
    JOINT RightLeg
    {
      OFFSET -9.973435 -38.659740 8.660418
      CHANNELS 3 Xrotation Yrotation Zrotation
      JOINT RightFoot
      {
        OFFSET -10.566743 -41.878031 2.772515
        CHANNELS 3 Xrotation Yrotation Zrotation
        End Site
        {
          OFFSET -3.170023 -12.563409 0.831755
        }
      }
    }
  }
}
MOTION
Frames: 13
Frame Time: 0.083333
0.000000 60.000000 0.000000 4.985583 0.471167 3.615134 0.000000 0.000000 0.000000 -8.304089 -2.208840 -8.063071 -0.874852 -8.776196 -4.814939 5.000000 0.000000 0.000000 -10.479611 5.312287 21.158070 40.261032 -17.879992 -4.247319 59.787546 -1.369661 -48.691610 0.000000 0.000000 0.000000 11.235749 -13.904503 -77.764746 -22.378788 -2.146697 70.149399 100.886489 13.064612 74.060689 0.000000 0.000000 0.000000 0.607977 -0.283909 -8.263637 16.528519 0.849765 -39.750626 0.000000 0.000000 0.000000 7.594122 -2.258331 14.195601 -19.286144 12.369283 -0.904586 0.000000 0.000000 0.000000
0.000000 60.000000 0.000000 4.906481 0.510663 3.761656 0.000000 0.000000 0.000000 -8.254806 -2.240350 -8.214087 -0.880336 -8.798456 -4.795172 5.000000 0.000000 0.000000 -9.609484 5.058771 21.654126 40.105908 -18.148416 -4.960643 60.474598 -1.904752 -48.608466 0.000000 0.000000 0.000000 11.051950 -13.664172 -77.428379 -21.933654 -1.743429 70.010890 99.314695 13.404159 73.820237 0.000000 0.000000 0.000000 0.843317 -0.356966 -8.597189 16.573738 1.394733 -39.859416 0.000000 0.000000 0.000000 7.695181 -2.367427 13.933080 -18.955485 12.060235 -1.116640 0.000000 0.000000 0.000000
0.000000 60.000000 0.000000 4.793121 0.575652 4.008479 0.000000 0.000000 0.000000 -8.174173 -2.270726 -8.421895 -0.895436 -8.790273 -4.777735 5.000000 0.000000 0.000000 -9.256325 4.917919 21.861103 39.767792 -18.217436 -5.370794 60.774039 -1.917285 -48.734191 0.000000 0.000000 0.000000 10.704402 -13.280120 -76.998332 -21.302587 -1.070235 69.894777 91.726290 12.457321 75.186725 0.000000 0.000000 0.000000 1.079585 -0.406364 -8.733729 16.599213 1.561504 -39.882037 0.000000 0.000000 0.000000 7.868093 -2.414613 13.854764 -18.755563 11.857260 -1.330707 0.000000 0.000000 0.000000
0.000000 60.000000 0.000000 4.591485 0.610184 4.075019 0.000000 0.000000 0.000000 -7.949178 -2.271050 -8.399970 -0.924095 -8.739509 -4.803951 5.000000 0.000000 0.000000 -9.323723 4.925528 21.982830 39.967269 -18.435256 -5.464667 60.771654 -1.923718 -48.709168 0.000000 0.000000 0.000000 10.227631 -12.590924 -76.441863 -20.350446 -0.099827 69.879286 83.202939 11.156505 76.408183 0.000000 0.000000 0.000000 1.189671 -0.414039 -8.770183 16.628379 1.841905 -39.926688 0.000000 0.000000 0.000000 7.901375 -2.411431 13.846168 -18.476397 11.608496 -1.488376 0.000000 0.000000 0.000000
0.000000 60.000000 0.000000 4.532087 0.614868 4.069488 0.000000 0.000000 0.000000 -7.874676 -2.256996 -8.334433 -0.943589 -8.717582 -4.824792 5.000000 0.000000 0.000000 -9.352202 4.924247 22.053951 40.092153 -18.559419 -5.561480 59.113571 -0.401212 -49.055638 0.000000 0.000000 0.000000 9.678369 -11.606461 -76.153961 -19.104384 0.706206 70.057438 77.134763 9.747903 77.638489 0.000000 0.000000 0.000000 1.259785 -0.424359 -8.802685 16.675952 1.983206 -39.958581 0.000000 0.000000 0.000000 7.956308 -2.415177 13.839145 -18.367107 11.491521 -1.629921 0.000000 0.000000 0.000000
0.000000 60.000000 0.000000 4.463980 0.620120 4.062633 0.000000 0.000000 0.000000 -7.795044 -2.252870 -8.292049 -0.959946 -8.713343 -4.839591 5.000000 0.000000 0.000000 -9.323694 4.929978 22.073539 40.379054 -18.674054 -5.627555 56.726161 1.618303 -49.473281 0.000000 0.000000 0.000000 9.280115 -10.787074 -75.995340 -18.183264 1.246830 70.157730 74.962803 9.019754 78.315688 0.000000 0.000000 0.000000 1.334959 -0.436491 -8.822888 16.743722 2.088606 -40.054319 0.000000 0.000000 0.000000 7.993831 -2.407210 13.832666 -18.266872 11.395459 -1.708643 0.000000 0.000000 0.000000
0.000000 60.000000 0.000000 4.388227 0.626324 4.056663 0.000000 0.000000 0.000000 -7.738104 -2.268809 -8.275301 -0.987434 -8.752062 -4.806788 5.000000 0.000000 0.000000 -9.195280 4.915664 22.104887 40.517451 -18.717897 -5.775829 55.158793 2.896881 -49.734064 0.000000 0.000000 0.000000 9.116938 -10.346615 -76.046289 -17.749798 1.424349 70.267308 76.154489 9.218906 78.169480 0.000000 0.000000 0.000000 1.339715 -0.439643 -8.849366 16.803319 2.091058 -40.148778 0.000000 0.000000 0.000000 7.931604 -2.370983 13.821734 -18.167138 11.302173 -1.792417 0.000000 0.000000 0.000000
0.000000 60.000000 0.000000 4.372089 0.627511 4.054748 0.000000 0.000000 0.000000 -7.756228 -2.284840 -8.275113 -1.013765 -8.804921 -4.755135 5.000000 0.000000 0.000000 -8.929452 4.818550 22.146252 40.417370 -18.629732 -5.993109 53.638690 4.167335 -50.050483 0.000000 0.000000 0.000000 9.071025 -10.225425 -76.093886 -17.664479 1.383171 70.304659 76.777085 9.289357 78.152627 0.000000 0.000000 0.000000 1.139131 -0.401851 -8.858161 16.828491 2.003805 -40.230994 0.000000 0.000000 0.000000 7.694854 -2.314388 13.829255 -18.170915 11.296648 -1.850049 0.000000 0.000000 0.000000
0.000000 60.000000 0.000000 4.574856 0.604170 4.040056 0.000000 0.000000 0.000000 -7.943893 -2.258052 -8.302687 -1.008875 -8.819393 -4.750338 5.000000 0.000000 0.000000 -8.719857 4.751977 22.103124 40.413203 -18.474813 -6.043479 53.186958 4.610522 -50.155546 0.000000 0.000000 0.000000 9.056163 -10.095080 -76.119049 -17.605668 1.320993 70.372783 77.416588 9.434148 78.081541 0.000000 0.000000 0.000000 0.902685 -0.343437 -8.808210 16.802229 1.861011 -40.199557 0.000000 0.000000 0.000000 7.455266 -2.241004 13.923647 -18.249417 11.367635 -1.865585 0.000000 0.000000 0.000000
0.000000 60.000000 0.000000 4.810281 0.563683 3.961816 0.000000 0.000000 0.000000 -8.170010 -2.242475 -8.323978 -0.991281 -8.858445 -4.722334 5.000000 0.000000 0.000000 -8.611003 4.828596 21.906561 40.570228 -18.300206 -5.840758 53.515588 4.412916 -50.086928 0.000000 0.000000 0.000000 9.279475 -10.128621 -76.244465 -17.795608 1.160944 70.499679 77.957406 9.513644 78.061955 0.000000 0.000000 0.000000 0.886052 -0.302704 -8.657156 16.786703 1.745735 -40.184880 0.000000 0.000000 0.000000 7.451799 -2.176493 14.136498 -18.299867 11.432998 -1.874531 0.000000 0.000000 0.000000
0.000000 60.000000 0.000000 4.822491 0.526725 3.798887 0.000000 0.000000 0.000000 -8.302480 -2.306200 -8.248852 -0.973289 -8.968475 -4.596812 5.000000 0.000000 0.000000 -8.567600 5.031791 21.771591 40.743490 -18.271069 -5.634460 53.854949 4.122992 -49.957011 0.000000 0.000000 0.000000 9.736552 -10.384815 -76.486013 -18.256184 0.948455 70.658258 78.237943 9.523859 78.110199 0.000000 0.000000 0.000000 1.053900 -0.292544 -8.494081 16.808389 1.770723 -40.208381 0.000000 0.000000 0.000000 7.627877 -2.137099 14.360062 -18.234314 11.419151 -1.856858 0.000000 0.000000 0.000000
0.000000 60.000000 0.000000 4.644442 0.508086 3.636612 0.000000 0.000000 0.000000 -8.378260 -2.427147 -8.088298 -0.982386 -9.123198 -4.374400 5.000000 0.000000 0.000000 -8.754292 5.336215 21.721253 40.936335 -18.388582 -5.352095 56.378586 1.870105 -49.368039 0.000000 0.000000 0.000000 10.356519 -10.921291 -76.803119 -18.998654 0.644746 70.846479 78.703644 9.698048 77.915975 0.000000 0.000000 0.000000 1.401039 -0.308334 -8.295771 16.856909 1.814413 -40.265274 0.000000 0.000000 0.000000 7.996388 -2.118945 14.602178 -18.123361 11.381867 -1.774920 0.000000 0.000000 0.000000
0.000000 60.000000 0.000000 4.269380 0.504357 3.460287 0.000000 0.000000 0.000000 -8.291647 -2.576231 -7.867286 -0.973153 -9.235999 -4.162002 5.000000 0.000000 0.000000 -9.194974 5.701718 21.698322 41.135417 -18.578352 -4.872329 58.926720 -0.384780 -48.987404 0.000000 0.000000 0.000000 11.023905 -11.624901 -77.122450 -19.867352 0.256498 71.017308 79.431844 10.046108 77.571202 0.000000 0.000000 0.000000 1.891589 -0.346144 -8.075393 16.923709 1.857542 -40.326618 0.000000 0.000000 0.000000 8.533037 -2.124023 14.830238 -18.024629 11.347814 -1.669173 0.000000 0.000000 0.000000
